inDegrees=no
num_controls=7
num_derivatives=13
num_iterations=127
num_multipliers=7
num_parameters=0
num_slacks=7
num_states=26
objective=0.444908
objective_accelerations=0.057956
objective_balance=0.003623
objective_effort=0.023334
objective_height=0.354495
objective_ligament=0.005501
solver_duration=1826.753965
status=Solve_Succeeded
success=true
DataType=double
version=3
OpenSimVersion=4.5
endheader
time	/jointset/ground_pelvis/pelvis_tilt/value	/jointset/ground_pelvis/pelvis_tx/value	/jointset/ground_pelvis/pelvis_ty/value	/jointset/hip_l/hip_flexion_l/value	/jointset/hip_l/hip_adduction_l/value	/jointset/hip_l/hip_rotation_l/value	/jointset/back/lumbar_extension/value	/jointset/patellofemoral_l/patellar_flexion_l/value	/jointset/knee_l/knee_flexion_l/value	/jointset/knee_l/knee_adduction_l/value	/jointset/knee_l/knee_rotation_l/value	/jointset/ankle_l/ankle_angle_l/value	/jointset/subtalar_l/subtalar_angle_l/value	/jointset/ground_pelvis/pelvis_tilt/speed	/jointset/ground_pelvis/pelvis_tx/speed	/jointset/ground_pelvis/pelvis_ty/speed	/jointset/hip_l/hip_flexion_l/speed	/jointset/hip_l/hip_adduction_l/speed	/jointset/hip_l/hip_rotation_l/speed	/jointset/back/lumbar_extension/speed	/jointset/patellofemoral_l/patellar_flexion_l/speed	/jointset/knee_l/knee_flexion_l/speed	/jointset/knee_l/knee_adduction_l/speed	/jointset/knee_l/knee_rotation_l/speed	/jointset/ankle_l/ankle_angle_l/speed	/jointset/subtalar_l/subtalar_angle_l/speed	/forceset/tau_hip_flexion_l	/forceset/tau_hip_adduction_l	/forceset/tau_hip_rotation_l	/forceset/tau_knee_flexion_l	/forceset/tau_ankle_angle_l	/forceset/tau_subtalar_angle_l	/forceset/tau_lumbar_extension	lambda_cid13_p0	lambda_cid13_p1	lambda_cid13_p2	lambda_cid13_p3	lambda_cid13_p4	lambda_cid13_p5	lambda_cid14_p0	/jointset/ground_pelvis/pelvis_tilt/accel	/jointset/ground_pelvis/pelvis_tx/accel	/jointset/ground_pelvis/pelvis_ty/accel	/jointset/hip_l/hip_flexion_l/accel	/jointset/hip_l/hip_adduction_l/accel	/jointset/hip_l/hip_rotation_l/accel	/jointset/back/lumbar_extension/accel	/jointset/patellofemoral_l/patellar_flexion_l/accel	/jointset/knee_l/knee_flexion_l/accel	/jointset/knee_l/knee_adduction_l/accel	/jointset/knee_l/knee_rotation_l/accel	/jointset/ankle_l/ankle_angle_l/accel	/jointset/subtalar_l/subtalar_angle_l/accel	gamma_cid13_p0	gamma_cid13_p1	gamma_cid13_p2	gamma_cid13_p3	gamma_cid13_p4	gamma_cid13_p5	gamma_cid14_p0
0	-0.03961890401905096	0.06895513983974022	0.895954606959957	0.1955287580552426	-0.3219676124827777	-0.4841787614147888	-0.1379045077516729	0.07015288079084893	0.07015288079084844	-0.1745328662942242	-0.1186056643547378	-0.06701059314715049	0.003870544902805719	0	0	0	0	0	0	0	0	0	0	0	0	0	0.1085221766373881	-0.1048863009403109	-0.03069432648774513	-0.2371208463890287	0.1940246493457554	-0.01221570742355434	-0.05315810267500675	26.7424820519893	-2.347924405590292	3.431764265916905	-1.056867447643085	-514.9333746289626	-83.85384736762921	-39.93526833644419	-4.564641449971513	-1.864363838521542	-0.9904048050341498	12.73846924094904	-2.151989056684977	3.387160971369739	-2.856835057237411	10.32221916777453	10.32221916777441	0.6618738401771497	-0.8393052217563651	2.33767887009096	-1.089347148012737	-2.844266219569728e-08	1.161865580433837e-07	1.282262194842787e-07	1.003272531361124e-08	-1.230940063508287e-08	-4.391173182990399e-08	-7.63900501122065e-09
0.01	-0.03983689464782376	0.06886334937089446	0.8959065248923325	0.196144880915894	-0.3220735076913774	-0.4840086877654718	-0.1380531770920598	0.07065432465824441	0.07065432465824578	-0.1745031678105473	-0.1186413767098865	-0.06689828269818948	0.003815414397469865	-0.04340395456633123	-0.01825760131510979	-0.00958462055464222	0.1226641715294804	-0.02106840725501011	0.03387237082279342	-0.02946163843442931	0.09984103069688736	0.09984103069688718	0.005933780968812379	-0.007097073382348428	0.02238639990728395	-0.01094711095181032	0.104483332051293	-0.1031425262302171	-0.03000815767178959	-0.2326716437330798	0.1886646765618424	-0.01044019663723008	-0.0496307737382707	25.06158072119924	-2.856521661146244	3.549178725770869	-0.6914255595673595	-515.8357355209516	-84.65020560932723	-39.94544580464587	-4.199158555794521	-1.791382403357505	-0.9377241970209378	11.9463189413729	-2.06770292662086	3.365906617544892	-2.949993790138465	9.74788513111748	9.747885131117503	0.558277444237032	-0.6380856636678786	2.177768668509207	-1.085577664298005	-7.014142931517134e-08	1.469227654691345e-07	2.062067991454135e-07	4.821801623067017e-08	-2.439653207138815e-07	-9.333309940137066e-08	-1.38019268406901e-08
0.02	-0.04048310204142509	0.06859199806382725	0.8957635499158931	0.1979708310583282	-0.3223867742458692	-0.4835041641119637	-0.1384882959275082	0.07214074685470345	0.07214074685470333	-0.1744143020733697	-0.1187466952522958	-0.06656437862666303	0.003653175863509355	-0.08564335296588364	-0.03591216764428982	-0.0189785817629485	0.2419654563559778	-0.04147426917849102	0.06689000083801663	-0.05728989901257011	0.1969956658126405	0.1969956658126397	0.01183345069777349	-0.01392123745244871	0.04431872451305164	-0.02142160572493413	0.1004444874652144	-0.1013987515201335	-0.02932198885583776	-0.2282224410771364	0.1833047037779215	-0.00866468585092099	-0.04610344480150679	23.44465954031681	-3.377514152306739	3.669932963787899	-0.484736687499392	-515.803150799746	-85.28178338325471	-39.97538274393256	-4.331730216615751	-1.743756841335591	-0.9522729357669631	12.06589190035244	-2.019479990379144	3.216212809855697	-2.530159485979715	9.784940051547681	9.784940051547474	0.6550515922068845	-0.7847233593067376	2.246863809787707	-0.994823912275442	-1.118401964346454e-07	1.776589728948852e-07	2.841873788065484e-07	8.640330714772911e-08	-4.756212407926802e-07	-1.427544669728373e-07	-1.996484867015956e-08
0.03	-0.04154629100471979	0.06814694158833291	0.8955272749411679	0.2009741371720627	-0.3229006759288704	-0.482673931513623	-0.1391931802443517	0.0745859069947981	0.07458590699479788	-0.1742664114565189	-0.1189193186090249	-0.06601342197538233	0.003388658503039432	-0.1267780690557989	-0.05301332170723994	-0.0282670127812089	0.3581413205510867	-0.06118568059922577	0.09902278350786688	-0.08344496142832146	0.2915861015305859	0.2915861015305661	0.01772943926403552	-0.0205501798731463	0.06577354536471094	-0.03140690158110234	0.09546563326068162	-0.0977032995213384	-0.02843169601345659	-0.2229000599325158	0.1769368990170344	-0.007884178295495111	-0.04200783061253714	21.46498385100193	-3.458199681902283	3.783699220023242	0.2669846576108235	-515.6833550103619	-84.88006461121022	-40.02384268756563	-3.971898928695086	-1.680406391738321	-0.9158141849527622	11.31024682191653	-1.928962983570292	3.191713433140745	-2.621879180214342	9.228560248430435	9.228560248427742	0.5546501164423078	-0.5939567943880115	2.079930186672621	-0.9891976088693334	-1.405505950501259e-07	1.985171238031894e-07	3.393676745648009e-07	1.138327014722972e-07	-6.432710089674028e-07	-1.769819143581876e-07	-2.37731314091661e-08
